<svg width="25" height="28" viewBox="0 0 25 28" fill="none" xmlns="http://www.w3.org/2000/svg">
<path d="M12.784 0.00788024C19.3373 -0.0904733 18.5768 6.06409 18.5768 6.06409L16.566 6.04439C17.355 0.450838 12.5549 0.454508 12.2693 0.44252C11.1219 0.394444 9.41566 1.64344 9.61567 5.97638L7.6026 5.95668C7.6026 5.95668 8.16373 0.0772415 12.784 0.00788024Z" fill="url(#paint0_linear_56_152)"/>
<path d="M12.5254 0.000380045C18.0008 0.0560403 17.3347 6.15861 17.3347 6.15861L15.3235 6.13892C16.1149 0.544506 12.5573 0.42083 12.2691 0.442605C11.8432 0.474778 9.08388 0.446642 8.37179 6.0709L6.75006 6.02148C6.75006 6.02148 7.0461 -0.0552802 12.5254 0.000380045Z" fill="url(#paint1_linear_56_152)"/>
<path d="M12.5254 0.000380045C18.0008 0.0560403 17.3347 6.15861 17.3347 6.15861L15.3235 6.13892C16.1149 0.544506 12.5573 0.42083 12.2691 0.442605C11.8432 0.474778 9.08388 0.446642 8.37179 6.0709L6.75006 6.02148C6.75006 6.02148 7.0461 -0.0552802 12.5254 0.000380045Z" fill="url(#paint2_linear_56_152)"/>
<path d="M9.88563 12.4313C11.9531 12.2698 13.6078 14.2972 13.595 16.9739C13.5822 19.6677 11.8871 22.0245 9.79522 22.2238C7.68796 22.4247 5.9987 20.3608 6.03626 17.6288C6.07357 14.9144 7.80308 12.594 9.88563 12.4313Z" fill="url(#paint3_linear_56_152)"/>
<path d="M2.29748 26.8374L18.1874 27.9965C19.2817 28.0768 23.1654 26.1325 23.1654 26.1325C24.0365 25.7131 22.0478 7.29024 21.8049 6.59907C21.7453 6.43148 20.5877 5.5441 20.5904 5.5589L20.2629 5.56184L4.28534 5.72735C3.60335 5.7342 3.01494 6.10682 2.93848 6.58048L0.0550377 24.5743C-0.254703 26.4867 0.776788 26.6687 2.29748 26.8374ZM4.49587 17.8936C4.47642 14.3718 6.83776 11.2717 9.76293 10.9502C12.6804 10.6296 15.0818 13.1927 15.1343 16.6939C15.1869 20.2169 12.8439 23.3649 9.89345 23.7064C6.93526 24.0485 4.51544 21.4375 4.49587 17.8936Z" fill="url(#paint4_linear_56_152)"/>
<path d="M23.4734 26.4139C20.2598 27.7497 19.8757 27.987 18.7649 27.9993C17.9355 28.0078 17.3068 27.9308 17.3068 27.9308C18.9839 27.483 19.4121 26.4689 19.5625 24.9349C19.7803 22.7281 19.8757 20.1065 19.9002 17.5547C19.9356 13.7796 19.8158 10.1562 19.7032 8.25515C19.5699 6.00672 20.2623 5.56144 20.5901 5.559C20.5901 5.559 21.4158 5.37428 21.8048 6.5988C22.0165 7.2655 23.6765 18.0293 24.3285 22.9947C24.3579 23.2162 24.3848 23.4266 24.4093 23.6235C24.5879 25.0413 24.3689 26.042 23.4734 26.4139Z" fill="url(#paint5_linear_56_152)"/>
<path d="M23.4734 26.414C20.2598 27.7498 19.8757 27.9871 18.7649 27.9994C17.9355 28.0079 17.3068 27.9309 17.3068 27.9309C18.9839 27.4831 19.4121 26.469 19.5625 24.935C19.7803 22.7282 19.8757 20.1066 19.9002 17.5548C20.1571 17.5768 20.4286 17.6099 20.7173 17.6539C23.2863 18.0515 24.0998 21.5428 24.3285 22.9948C24.3897 23.3814 24.4093 23.6236 24.4093 23.6236C24.5879 25.0414 24.3689 26.0421 23.4734 26.414Z" fill="url(#paint6_linear_56_152)"/>
<path d="M18.7649 27.999C18.9526 27.997 19.1193 27.9883 19.2826 27.9692C20.2334 27.7372 20.5124 26.4627 20.6044 25.3542C20.8935 21.8703 20.7254 14.1222 20.3029 8.92167C20.114 6.59751 20.4686 6.14477 20.7554 5.98635C21.2344 5.72163 21.5771 6.09327 21.5771 6.09327C21.1611 5.4322 20.5904 5.55893 20.5904 5.55893C20.2629 5.56186 19.57 6.00629 19.7033 8.25558C19.8921 11.4413 20.101 19.4626 19.5631 24.9343C19.4123 26.4687 18.9845 27.4825 17.307 27.9307C17.307 27.9307 17.9354 28.0078 18.7649 27.999Z" fill="#00191F"/>
<path d="M14.9364 9.92934C14.8594 10.7663 15.3721 11.4034 16.0814 11.3516C16.7906 11.2997 17.4271 10.5787 17.5028 9.74181C17.5784 8.90568 17.0658 8.2703 16.3576 8.32204C15.6495 8.37366 15.0132 9.09297 14.9364 9.92934Z" fill="#00191F"/>
<defs>
<linearGradient id="paint0_linear_56_152" x1="16.3142" y1="1.05789" x2="14.1464" y2="3.62719" gradientUnits="userSpaceOnUse">
<stop stop-color="#FFB445"/>
<stop offset="0.1102" stop-color="#FFAC4A"/>
<stop offset="0.2766" stop-color="#FF9858"/>
<stop offset="0.4784" stop-color="#FF7670"/>
<stop offset="0.7082" stop-color="#FF4690"/>
<stop offset="0.9583" stop-color="#FF0BBA"/>
<stop offset="1" stop-color="#FF00C1"/>
</linearGradient>
<linearGradient id="paint1_linear_56_152" x1="0.914185" y1="18.5457" x2="14.031" y2="2.53201" gradientUnits="userSpaceOnUse">
<stop stop-color="#5C1CB2"/>
<stop offset="0.1732" stop-color="#5C59CE"/>
<stop offset="0.3464" stop-color="#5C90E7"/>
<stop offset="0.4756" stop-color="#5CB2F6"/>
<stop offset="0.5456" stop-color="#5CBFFC"/>
<stop offset="0.9913" stop-color="#FF00C1"/>
</linearGradient>
<linearGradient id="paint2_linear_56_152" x1="12.0846" y1="6.18606" x2="11.7997" y2="1.15239" gradientUnits="userSpaceOnUse">
<stop stop-color="#606279"/>
<stop offset="0.2124" stop-color="#7D7F91" stop-opacity="0.7876"/>
<stop offset="0.6699" stop-color="#C6C7CF" stop-opacity="0.3301"/>
<stop offset="1" stop-color="white" stop-opacity="0"/>
</linearGradient>
<linearGradient id="paint3_linear_56_152" x1="1.50376" y1="26.8808" x2="18.1839" y2="9.02393" gradientUnits="userSpaceOnUse">
<stop stop-color="#5C1CB2"/>
<stop offset="0.1732" stop-color="#5C59CE"/>
<stop offset="0.3464" stop-color="#5C90E7"/>
<stop offset="0.4756" stop-color="#5CB2F6"/>
<stop offset="0.5456" stop-color="#5CBFFC"/>
<stop offset="0.9913" stop-color="#FF00C1"/>
</linearGradient>
<linearGradient id="paint4_linear_56_152" x1="0.953748" y1="28.8602" x2="20.6103" y2="8.39799" gradientUnits="userSpaceOnUse">
<stop stop-color="#5C1CB2"/>
<stop offset="0.1732" stop-color="#5C59CE"/>
<stop offset="0.3464" stop-color="#5C90E7"/>
<stop offset="0.4756" stop-color="#5CB2F6"/>
<stop offset="0.5456" stop-color="#5CBFFC"/>
<stop offset="0.9913" stop-color="#FF00C1"/>
</linearGradient>
<linearGradient id="paint5_linear_56_152" x1="25.732" y1="13.9646" x2="17.2432" y2="18.5459" gradientUnits="userSpaceOnUse">
<stop stop-color="#FFB445"/>
<stop offset="0.1102" stop-color="#FFAC4A"/>
<stop offset="0.2766" stop-color="#FF9858"/>
<stop offset="0.4784" stop-color="#FF7670"/>
<stop offset="0.7082" stop-color="#FF4690"/>
<stop offset="0.9583" stop-color="#FF0BBA"/>
<stop offset="1" stop-color="#FF00C1"/>
</linearGradient>
<linearGradient id="paint6_linear_56_152" x1="21.9677" y1="17.608" x2="20.8582" y2="26.5576" gradientUnits="userSpaceOnUse">
<stop stop-color="#FFB445"/>
<stop offset="0.1102" stop-color="#FFAC4A"/>
<stop offset="0.2766" stop-color="#FF9858"/>
<stop offset="0.4784" stop-color="#FF7670"/>
<stop offset="0.7082" stop-color="#FF4690"/>
<stop offset="0.9583" stop-color="#FF0BBA"/>
<stop offset="1" stop-color="#FF00C1"/>
</linearGradient>
</defs>
</svg>
